<?xml version="1.0" encoding="UTF-8"?>
<svg version="1.1" xmlns="http://www.w3.org/2000/svg" width="337" height="400">
<path d="M0 0 C4.07175768 2.07289482 6.36164213 3.74684176 8 8 C8.22705078 10.65722656 8.22705078 10.65722656 8.1953125 13.640625 C8.19031738 14.60516602 8.18532227 15.56970703 8.18017578 16.56347656 C8.16196777 17.7800293 8.14375977 18.99658203 8.125 20.25 C8.08375 24.1275 8.0425 28.005 8 32 C21.86 32 35.72 32 50 32 C49.84220683 23.99712757 49.84220683 23.99712757 49.63964844 15.99536133 C49.6296582 14.9927124 49.61966797 13.99006348 49.609375 12.95703125 C49.5779541 11.42526245 49.5779541 11.42526245 49.54589844 9.86254883 C50.12233328 6.22883996 51.47609298 4.6284526 54 2 C58.04314376 -0.69542917 61.25108711 -0.66452365 66 0 C70.07175768 2.07289482 72.36164213 3.74684176 74 8 C74.22705078 10.65722656 74.22705078 10.65722656 74.1953125 13.640625 C74.19031738 14.60516602 74.18532227 15.56970703 74.18017578 16.56347656 C74.16196777 17.7800293 74.14375977 18.99658203 74.125 20.25 C74.08375 24.1275 74.0425 28.005 74 32 C87.53 31.67 101.06 31.34 115 31 C115.17007305 23.70131102 115.17007305 23.70131102 115.29785156 16.40185547 C115.49857265 10.37705353 115.83776431 6.50170882 120 2 C123.97520689 -0.71036834 128.35185371 -0.81221933 133 0 C136.07061968 1.71368609 138.40450726 3.80901452 140 7 C140.084915 8.8863912 140.107193 10.77578515 140.09765625 12.6640625 C140.09515869 13.6742041 140.09266113 14.6843457 140.09008789 15.72509766 C140.08098389 17.01206543 140.07187988 18.2990332 140.0625 19.625 C140.041875 23.70875 140.02125 27.7925 140 32 C153.86 32 167.72 32 182 32 C181.84239508 24.37124054 181.84239508 24.37124054 181.63964844 16.74365234 C181.57510725 10.54457547 181.63611631 6.59275871 186 2 C189.41864668 -0.31955514 192.62531874 -0.53067602 196.67578125 -0.45703125 C200.72458526 0.33912013 203.43498094 2.86243204 206 6 C207.01973129 9.05919388 207.11533602 11.12418025 207.09765625 14.32421875 C207.09443359 15.35224609 207.09121094 16.38027344 207.08789062 17.43945312 C207.07951172 18.51130859 207.07113281 19.58316406 207.0625 20.6875 C207.05798828 21.77095703 207.05347656 22.85441406 207.04882812 23.97070312 C207.03703743 26.64719085 207.02058063 29.32356777 207 32 C207.71542969 31.98952637 208.43085938 31.97905273 209.16796875 31.96826172 C212.44527601 31.92639444 215.72252674 31.90057671 219 31.875 C220.12535156 31.85824219 221.25070312 31.84148438 222.41015625 31.82421875 C230.41140097 31.77742785 237.58466631 31.99954474 244.5 36.5 C245.1703125 36.9228125 245.840625 37.345625 246.53125 37.78125 C247.0159375 38.1834375 247.500625 38.585625 248 39 C248 39.66 248 40.32 248 41 C248.66 41 249.32 41 250 41 C255.76122913 48.56161324 256.29420347 55.07052887 256.26742554 64.24615479 C256.27195665 65.38353678 256.27648776 66.52091878 256.28115618 67.6927669 C256.29382309 71.50648218 256.2921783 75.32005507 256.29052734 79.13378906 C256.29542439 81.86718789 256.30325978 84.60057672 256.31088257 87.33396912 C256.32748174 93.99005679 256.33299164 100.64610903 256.33410732 107.30221567 C256.33505839 112.71436828 256.33917159 118.12650922 256.34550858 123.53865814 C256.36311863 138.89172897 256.37234791 154.24477186 256.37084763 169.59785286 C256.37076772 170.42520497 256.3706878 171.25255708 256.37060547 172.10498047 C256.37052371 172.93334588 256.37044195 173.76171128 256.37035771 174.61517867 C256.36954505 188.03583201 256.38867829 201.45637306 256.4168822 214.87699392 C256.44563028 228.66565148 256.45942141 242.4542543 256.45769465 256.24294257 C256.45703137 263.98081947 256.46249611 271.71857867 256.48405075 279.45642853 C256.50228798 286.04548364 256.50658918 292.6343677 256.4930319 299.22343716 C256.48651459 302.58280402 256.48852506 305.94157603 256.5037384 309.30095482 C256.51918949 312.94956516 256.50988214 316.59731856 256.49447632 320.24591064 C256.50476344 321.29826409 256.51505057 322.35061753 256.52564943 323.43486047 C256.44573296 332.0201159 254.64080232 339.40986471 248.75 345.875 C242.46715324 351.59158161 235.60401712 354.12417285 227.14077187 354.12584114 C225.70586385 354.12975276 225.70586385 354.12975276 224.2419678 354.13374341 C223.19907796 354.13151268 222.15618812 354.12928196 221.08169556 354.12698364 C219.9675526 354.12854363 218.85340964 354.13010362 217.70550478 354.13171089 C213.96462653 354.13570595 210.22378872 354.13253696 206.48291016 354.12939453 C203.80390809 354.13074925 201.12490883 354.13249336 198.44590759 354.13470459 C191.9196983 354.13915269 185.3935005 354.13818999 178.86729075 354.13529195 C173.56235807 354.13303377 168.2574286 354.1327272 162.95249557 354.13381577 C161.82003291 354.13404561 161.82003291 354.13404561 160.66469222 354.13428011 C159.130959 354.13459983 157.59722579 354.13492405 156.06349258 354.1352527 C141.67873223 354.13810478 127.29397826 354.13482492 112.90921895 354.12945233 C100.57000996 354.12498635 88.23081038 354.12575905 75.89160156 354.13037109 C61.56148765 354.13572477 47.23137932 354.1378282 32.90126455 354.13475883 C31.37255502 354.13444028 29.84384549 354.13412591 28.31513596 354.13381577 C27.56299378 354.13366149 26.8108516 354.13350721 26.03591723 354.13334826 C20.73920046 354.13248536 15.44248724 354.13394116 10.14577103 354.13629532 C3.68803972 354.13910239 -2.76967943 354.13833595 -9.22740935 354.13301457 C-12.52140268 354.13038956 -15.81537163 354.12989203 -19.10936546 354.13266373 C-22.68217331 354.13539298 -26.25492407 354.13197221 -29.82772827 354.12698364 C-30.86615667 354.12921436 -31.90458506 354.13144509 -32.97448099 354.13374341 C-43.7227081 354.10460216 -50.67684611 352.87052032 -58.80078125 345.328125 C-65.62166755 337.94870459 -66.44375804 330.19678233 -66.40113831 320.52679443 C-66.40793498 319.38911472 -66.41473164 318.251435 -66.42173427 317.07928014 C-66.4406876 313.27639269 -66.43827056 309.47382782 -66.43579102 305.67089844 C-66.44314203 302.94044282 -66.45489373 300.21000966 -66.46632385 297.47956848 C-66.49119348 290.83778235 -66.49948611 284.19607611 -66.50116099 277.55424729 C-66.50258888 272.15264148 -66.50876513 266.75106192 -66.51826286 261.34946442 C-66.54466928 246.01833381 -66.55852311 230.68726608 -66.55627144 215.35611257 C-66.55615157 214.53041671 -66.5560317 213.70472085 -66.5559082 212.85400391 C-66.55578556 212.02729412 -66.55566292 211.20058434 -66.55553656 210.34882274 C-66.5543176 196.95545324 -66.58301875 183.56233694 -66.6253233 170.16904065 C-66.66846779 156.40064033 -66.68913093 142.63236335 -66.68654197 128.86389375 C-66.68554787 121.14045401 -66.69370904 113.41727972 -66.72607613 105.69390106 C-66.75346163 99.11732935 -66.75985997 92.54114339 -66.73954786 85.9645392 C-66.7297862 82.61276815 -66.73274548 79.2623366 -66.7556076 75.91053963 C-66.77884573 72.26675286 -66.76478651 68.62488707 -66.74171448 64.98114014 C-66.75714517 63.93597662 -66.77257586 62.8908131 -66.78847414 61.81397796 C-66.67593498 53.73166118 -64.04567992 47.93070118 -60 41 C-59.34 41 -58.68 41 -58 41 C-58 40.34 -58 39.68 -58 39 C-56.0234375 37.52734375 -56.0234375 37.52734375 -53.375 35.9375 C-52.51648437 35.41027344 -51.65796875 34.88304687 -50.7734375 34.33984375 C-45.9947373 32.03126041 -41.18800364 31.87531957 -35.9453125 31.90234375 C-34.83671875 31.90556641 -33.728125 31.90878906 -32.5859375 31.91210938 C-31.44382813 31.92048828 -30.30171875 31.92886719 -29.125 31.9375 C-27.37703125 31.94426758 -27.37703125 31.94426758 -25.59375 31.95117188 C-22.72911355 31.96291219 -19.86458367 31.9793343 -17 32 C-17.01571045 31.3294458 -17.0314209 30.6588916 -17.04760742 29.96801758 C-17.11014658 26.9162649 -17.14905063 23.86464732 -17.1875 20.8125 C-17.21263672 19.75740234 -17.23777344 18.70230469 -17.26367188 17.61523438 C-17.27333984 16.59365234 -17.28300781 15.57207031 -17.29296875 14.51953125 C-17.3086792 13.58214111 -17.32438965 12.64475098 -17.34057617 11.67895508 C-16.79898781 7.41884819 -14.72761502 4.79181634 -11.875 1.6875 C-7.86248649 -0.66767097 -4.54686069 -0.80050364 0 0 Z " fill="#DDE2E5" transform="translate(74,6)"/>
<path d="M0 0 C4.07175768 2.07289482 6.36164213 3.74684176 8 8 C8.22705078 10.65722656 8.22705078 10.65722656 8.1953125 13.640625 C8.19031738 14.60516602 8.18532227 15.56970703 8.18017578 16.56347656 C8.16196777 17.7800293 8.14375977 18.99658203 8.125 20.25 C8.08375 24.1275 8.0425 28.005 8 32 C21.86 32 35.72 32 50 32 C49.84220683 23.99712757 49.84220683 23.99712757 49.63964844 15.99536133 C49.6296582 14.9927124 49.61966797 13.99006348 49.609375 12.95703125 C49.5779541 11.42526245 49.5779541 11.42526245 49.54589844 9.86254883 C50.12233328 6.22883996 51.47609298 4.6284526 54 2 C58.04314376 -0.69542917 61.25108711 -0.66452365 66 0 C70.07175768 2.07289482 72.36164213 3.74684176 74 8 C74.22705078 10.65722656 74.22705078 10.65722656 74.1953125 13.640625 C74.19031738 14.60516602 74.18532227 15.56970703 74.18017578 16.56347656 C74.16196777 17.7800293 74.14375977 18.99658203 74.125 20.25 C74.08375 24.1275 74.0425 28.005 74 32 C87.53 31.67 101.06 31.34 115 31 C115.17007305 23.70131102 115.17007305 23.70131102 115.29785156 16.40185547 C115.49857265 10.37705353 115.83776431 6.50170882 120 2 C123.97520689 -0.71036834 128.35185371 -0.81221933 133 0 C136.07061968 1.71368609 138.40450726 3.80901452 140 7 C140.084915 8.8863912 140.107193 10.77578515 140.09765625 12.6640625 C140.09515869 13.6742041 140.09266113 14.6843457 140.09008789 15.72509766 C140.08098389 17.01206543 140.07187988 18.2990332 140.0625 19.625 C140.041875 23.70875 140.02125 27.7925 140 32 C153.86 32 167.72 32 182 32 C181.84239508 24.37124054 181.84239508 24.37124054 181.63964844 16.74365234 C181.57510725 10.54457547 181.63611631 6.59275871 186 2 C189.41864668 -0.31955514 192.62531874 -0.53067602 196.67578125 -0.45703125 C200.72458526 0.33912013 203.43498094 2.86243204 206 6 C207.01973129 9.05919388 207.11533602 11.12418025 207.09765625 14.32421875 C207.09443359 15.35224609 207.09121094 16.38027344 207.08789062 17.43945312 C207.07951172 18.51130859 207.07113281 19.58316406 207.0625 20.6875 C207.05798828 21.77095703 207.05347656 22.85441406 207.04882812 23.97070312 C207.03703743 26.64719085 207.02058063 29.32356777 207 32 C207.71542969 31.98952637 208.43085938 31.97905273 209.16796875 31.96826172 C212.44527601 31.92639444 215.72252674 31.90057671 219 31.875 C220.12535156 31.85824219 221.25070312 31.84148438 222.41015625 31.82421875 C230.41140097 31.77742785 237.58466631 31.99954474 244.5 36.5 C245.1703125 36.9228125 245.840625 37.345625 246.53125 37.78125 C247.0159375 38.1834375 247.500625 38.585625 248 39 C248 39.66 248 40.32 248 41 C248.66 41 249.32 41 250 41 C252.67927341 45.01891012 252.15601248 47.24161923 252 52 C252.66 52 253.32 52 254 52 C259.27151675 67.81455026 255 85.33000033 255 102 C149.4 102 43.8 102 -65 102 C-65 47.45833333 -65 47.45833333 -60 41 C-59.34 41 -58.68 41 -58 41 C-58 40.34 -58 39.68 -58 39 C-56.0234375 37.52734375 -56.0234375 37.52734375 -53.375 35.9375 C-52.51648437 35.41027344 -51.65796875 34.88304687 -50.7734375 34.33984375 C-45.9947373 32.03126041 -41.18800364 31.87531957 -35.9453125 31.90234375 C-34.83671875 31.90556641 -33.728125 31.90878906 -32.5859375 31.91210938 C-31.44382813 31.92048828 -30.30171875 31.92886719 -29.125 31.9375 C-27.37703125 31.94426758 -27.37703125 31.94426758 -25.59375 31.95117188 C-22.72911355 31.96291219 -19.86458367 31.9793343 -17 32 C-17.01571045 31.3294458 -17.0314209 30.6588916 -17.04760742 29.96801758 C-17.11014658 26.9162649 -17.14905063 23.86464732 -17.1875 20.8125 C-17.21263672 19.75740234 -17.23777344 18.70230469 -17.26367188 17.61523438 C-17.27333984 16.59365234 -17.28300781 15.57207031 -17.29296875 14.51953125 C-17.3086792 13.58214111 -17.32438965 12.64475098 -17.34057617 11.67895508 C-16.79898781 7.41884819 -14.72761502 4.79181634 -11.875 1.6875 C-7.86248649 -0.66767097 -4.54686069 -0.80050364 0 0 Z " fill="#30A7F2" transform="translate(74,6)"/>
<path d="M0 0 C4.82300861 0.00753637 9.64593489 0.00481454 14.4689405 -0.00360346 C44.25308809 -0.05412709 74.00623497 0.16515214 103.7760694 1.14776373 C105.00082858 1.18659422 106.22558776 1.22542471 107.48746085 1.26543188 C121.18763927 1.71154847 134.73739201 2.45385976 148.3307569 4.25713873 C148.3307569 5.57713873 148.3307569 6.89713873 148.3307569 8.25713873 C145.37293164 8.57515126 142.41461716 8.88651517 139.4557569 9.19463873 C138.65267097 9.28165045 137.84958503 9.36866217 137.02216315 9.4583106 C122.04170675 11.0020981 106.96114457 11.45895959 91.91278815 11.81182623 C90.60220907 11.84323013 90.60220907 11.84323013 89.26515365 11.87526846 C65.11052184 12.43671482 40.95176337 12.4089207 16.79193854 12.38750982 C10.32551941 12.3818222 3.85914152 12.38520022 -2.6072762 12.39094782 C-27.00433113 12.40935311 -51.39460856 12.35263101 -75.7864306 11.80791998 C-77.1361895 11.7783968 -77.1361895 11.7783968 -78.51321626 11.74827719 C-122.79205018 10.74871205 -122.79205018 10.74871205 -134.6692431 7.25713873 C-134.3392431 6.26713873 -134.0092431 5.27713873 -133.6692431 4.25713873 C-119.16799413 2.35533081 -104.70962029 1.62962691 -90.0989306 1.14776373 C-88.87722035 1.10589186 -87.65551011 1.06401999 -86.39677835 1.02087927 C-57.60123653 0.05166752 -28.80852507 -0.05019432 0 0 Z " fill="#E5E7E9" transform="translate(161.6692430973053,381.74286127090454)"/>
<path d="M0 0 C0.7381041 0.00233139 1.47620819 0.00466278 2.23667908 0.00706482 C3.79079818 0.01677338 5.34488343 0.03849424 6.89868164 0.0715332 C9.27348375 0.12101333 11.64621282 0.13302056 14.02148438 0.13867188 C15.53517822 0.15275699 17.04885415 0.16896109 18.5625 0.1875 C19.26987808 0.1928627 19.97725616 0.1982254 20.70606995 0.20375061 C24.33393769 0.2910654 27.20401472 0.42981041 30.21484375 2.55859375 C32.68524855 6.26420096 32.50390159 9.1151833 32.48046875 13.40234375 C32.48333893 14.55059631 32.48333893 14.55059631 32.48626709 15.7220459 C32.48762708 17.33927744 32.48394361 18.95651996 32.47558594 20.57373047 C32.46488348 23.04940305 32.47548719 25.52434999 32.48828125 28 C32.48695962 29.57161619 32.48439716 31.14323192 32.48046875 32.71484375 C32.48451721 33.45553101 32.48856567 34.19621826 32.49273682 34.95935059 C32.45857189 38.70308443 32.3450782 40.36324208 30.21484375 43.55859375 C29.55484375 43.55859375 28.89484375 43.55859375 28.21484375 43.55859375 C28.21484375 44.21859375 28.21484375 44.87859375 28.21484375 45.55859375 C23.46428943 45.6081621 18.71388687 45.64439284 13.96313477 45.66845703 C12.34819922 45.67849271 10.73328175 45.69212426 9.1184082 45.70947266 C6.792435 45.7338284 4.4667028 45.74510122 2.140625 45.75390625 C1.42272293 45.76422882 0.70482086 45.77455139 -0.03483582 45.78518677 C-4.03291927 45.78607451 -7.32924227 45.66867031 -10.78515625 43.55859375 C-13.13823141 39.62685067 -13.12101341 35.49765927 -13.15625 31.02734375 C-13.16527847 30.31380737 -13.17430695 29.600271 -13.18360901 28.8651123 C-13.19806105 27.36242844 -13.20698565 25.85968238 -13.21069336 24.35693359 C-13.22262289 22.06500341 -13.27187623 19.77574043 -13.32226562 17.484375 C-13.33172771 16.0195443 -13.33896378 14.55469719 -13.34375 13.08984375 C-13.36328232 12.40950073 -13.38281464 11.72915771 -13.40293884 11.02819824 C-13.36882496 7.4125224 -12.81947927 5.60778735 -10.73681641 2.62280273 C-7.09164211 0.07359276 -4.29284226 -0.11887531 0 0 Z " fill="#BDC8CC" transform="translate(50.78515625,210.44140625)"/>
<path d="M0 0 C0.7111647 0.00137466 1.42232941 0.00274933 2.15504456 0.00416565 C3.65372807 0.01319652 5.15238644 0.03674805 6.65063477 0.07397461 C8.93152822 0.12866938 11.20875405 0.13550389 13.49023438 0.13476562 C25.93658958 0.26039162 25.93658958 0.26039162 31.50390625 3.69140625 C33.84537339 8.37434052 32.85776076 15.31950391 32.90893555 20.52124023 C32.93051522 22.17119274 32.96461864 23.82103076 33.01147461 25.47045898 C33.07853077 27.85321984 33.10593871 30.23361586 33.125 32.6171875 C33.15283066 33.35068924 33.18066132 34.08419098 33.20933533 34.83992004 C33.19296334 38.93449085 32.63251739 40.54366789 29.91674805 43.66333008 C25.98116738 46.00204305 23.82174438 46.28737019 19.27734375 46.21484375 C18.60724274 46.21014069 17.93714172 46.20543762 17.24673462 46.20059204 C15.12304208 46.17939503 13.00192089 46.12288481 10.87890625 46.06640625 C9.44663831 46.04988008 8.01434343 46.03553694 6.58203125 46.0234375 C-6.0215188 45.86112058 -6.0215188 45.86112058 -8.49609375 44.69140625 C-12.2484985 40.28333382 -13.01359894 37.03094733 -13.0625 31.31640625 C-13.06869858 30.62885254 -13.07489716 29.94129883 -13.08128357 29.23291016 C-13.08834885 27.7874492 -13.08526539 26.34190631 -13.07250977 24.89648438 C-13.05862515 22.69638219 -13.09277175 20.50052611 -13.13085938 18.30078125 C-13.13181063 16.88932189 -13.12995141 15.47785725 -13.125 14.06640625 C-13.12608765 12.15988281 -13.12608765 12.15988281 -13.12719727 10.21484375 C-11.71577264 2.33489009 -7.63943006 -0.07144018 0 0 Z " fill="#BDC8CC" transform="translate(122.49609375,138.30859375)"/>
<path d="M0 0 C0.74047577 -0.00287018 1.48095154 -0.00574036 2.24386597 -0.00869751 C3.80207081 -0.01073132 5.36030159 -0.00524935 6.91845703 0.00732422 C9.30428872 0.02343481 11.68843833 0.00743034 14.07421875 -0.01171875 C15.59114957 -0.00973709 17.10807934 -0.00589501 18.625 0 C19.69380905 -0.00910904 19.69380905 -0.00910904 20.78421021 -0.0184021 C23.73162909 0.02355261 25.70740575 0.06319814 28.15185547 1.79833984 C29.1796875 3.3984375 29.1796875 3.3984375 29.1796875 5.3984375 C29.8396875 5.3984375 30.4996875 5.3984375 31.1796875 5.3984375 C31.25418001 9.84583163 31.30845007 14.2928894 31.34448242 18.74072266 C31.35951293 20.25185477 31.37994314 21.76294368 31.40600586 23.27392578 C31.44264439 25.45355937 31.45947088 27.63261325 31.47265625 29.8125 C31.4883667 31.1217041 31.50407715 32.4309082 31.52026367 33.77978516 C31.15060245 37.70746881 30.27270511 40.07446716 28.1796875 43.3984375 C24.49002053 45.85821548 22.64429925 45.64327671 18.24609375 45.62890625 C17.23457497 45.62821892 17.23457497 45.62821892 16.20262146 45.6275177 C14.77788532 45.62450004 13.35315234 45.61662823 11.9284668 45.60424805 C9.7536238 45.58603328 7.57920808 45.58373821 5.40429688 45.58398438 C-8.21984907 45.53565051 -8.21984907 45.53565051 -12.04370117 42.81860352 C-14.47012212 39.51324268 -14.34277147 36.61648969 -14.24609375 32.67578125 C-14.24280563 31.93389053 -14.23951752 31.19199982 -14.23612976 30.42762756 C-14.22572925 28.86336459 -14.2058135 27.29913962 -14.17700195 25.73510742 C-14.13290146 23.34076736 -14.11555915 20.94743048 -14.10351562 18.55273438 C-14.09009161 17.03123554 -14.07516864 15.50974903 -14.05859375 13.98828125 C-14.05120682 13.27260483 -14.04381989 12.55692841 -14.03620911 11.81956482 C-13.97727578 8.75440737 -13.79692923 6.32828768 -12.8203125 3.3984375 C-8.7765243 0.15636101 -4.99292969 -0.04279593 0 0 Z " fill="#BDC8CC" transform="translate(268.8203125,138.6015625)"/>
<path d="M0 0 C0.69134033 0.00611801 1.38268066 0.01223602 2.0949707 0.01853943 C4.29399432 0.04536322 6.48944582 0.11439218 8.6875 0.18359375 C10.16402606 0.20513587 11.64059308 0.22404221 13.1171875 0.24023438 C26.38112626 0.44526097 26.38112626 0.44526097 29.6875 1.62109375 C32.99779429 5.4858883 33.11655887 9.30596616 33.05078125 14.1875 C33.05152901 15.26136208 33.05152901 15.26136208 33.05229187 16.35691833 C33.04996039 17.86386911 33.04028661 19.37082445 33.02368164 20.87768555 C33.00003814 23.17987971 33.00313363 25.4809179 33.00976562 27.78320312 C33.00418972 29.25130896 32.99708038 30.71940994 32.98828125 32.1875 C32.98964836 33.21575645 32.98964836 33.21575645 32.99104309 34.26478577 C32.89452058 40.78849383 32.89452058 40.78849383 30.6875 43.62109375 C25.02431004 46.8257705 18.23414951 46.03052713 11.91308594 46.04663086 C9.69354916 46.05856123 7.4767662 46.10781705 5.2578125 46.15820312 C3.83855514 46.16766524 2.41928083 46.17490129 1 46.1796875 C-0.92392578 46.19986938 -0.92392578 46.19986938 -2.88671875 46.22045898 C-7.17564779 45.47007979 -8.60650549 43.94993139 -11.3125 40.62109375 C-13.55011193 36.14586989 -12.62239579 30.10209589 -12.66259766 25.12792969 C-12.67912195 23.63037538 -12.70636606 22.1328988 -12.74462891 20.63574219 C-12.79968342 18.46898789 -12.8213139 16.30408031 -12.8359375 14.13671875 C-12.85575684 12.84024414 -12.87557617 11.54376953 -12.89599609 10.20800781 C-11.66041186 2.61252515 -7.727474 -0.15095756 0 0 Z " fill="#BDC8CC" transform="translate(267.3125,210.37890625)"/>
<path d="M0 0 C2.22779324 0.00315861 4.45425567 -0.02030957 6.68188477 -0.0456543 C8.10571122 -0.04792771 9.52954123 -0.04863059 10.95336914 -0.04760742 C12.24235107 -0.05058838 13.53133301 -0.05356934 14.859375 -0.05664062 C18.51411368 0.33872552 20.3991693 1.10500854 23.30102539 3.31567383 C24.82450574 6.36263453 24.44314096 9.53647444 24.43383789 12.87817383 C24.43479462 13.62526611 24.43575134 14.3723584 24.43673706 15.14208984 C24.43741788 16.72241297 24.43557042 18.30273888 24.43139648 19.88305664 C24.42604681 22.30597192 24.43134475 24.72870183 24.43774414 27.15161133 C24.43708334 28.68546591 24.43580214 30.21932037 24.43383789 31.75317383 C24.43586212 32.48028564 24.43788635 33.20739746 24.43997192 33.95654297 C24.41598719 39.08575022 24.41598719 39.08575022 23.30102539 41.31567383 C22.64102539 41.31567383 21.98102539 41.31567383 21.30102539 41.31567383 C20.97102539 42.30567383 20.64102539 43.29567383 20.30102539 44.31567383 C15.81434191 46.55901557 9.30696133 45.62686757 4.32568359 45.66577148 C2.77279662 45.68231744 1.21998539 45.70959024 -0.33251953 45.74780273 C-2.57616502 45.80271797 -4.81802786 45.82446521 -7.06225586 45.83911133 C-7.75201004 45.8617807 -8.44176422 45.88445007 -9.15242004 45.9078064 C-13.04490882 45.89083965 -14.57132185 45.42111913 -17.61376953 42.90795898 C-21.90341678 37.5751555 -20.92151321 31.74742096 -20.93920898 25.19482422 C-20.94889151 23.021824 -20.97990287 20.8497792 -21.01147461 18.67700195 C-21.0180073 17.28963777 -21.02325672 15.90226682 -21.02709961 14.51489258 C-21.03644531 13.25507568 -21.04579102 11.99525879 -21.05541992 10.69726562 C-20.66798996 7.02172287 -19.98698043 5.19312214 -17.69897461 2.31567383 C-12.86534163 -1.28525702 -5.77145232 -0.0171637 0 0 Z " fill="#BDC8CB" transform="translate(130.698974609375,210.684326171875)"/>
<path d="M0 0 C0.69371201 0.00470306 1.38742401 0.00940613 2.10215759 0.01425171 C4.30741928 0.03550253 6.51023151 0.09203876 8.71484375 0.1484375 C10.19984698 0.16495733 11.68487609 0.17930212 13.16992188 0.19140625 C24.84489701 0.33649823 24.84489701 0.33649823 28.65234375 1.5234375 C28.65234375 2.1834375 28.65234375 2.8434375 28.65234375 3.5234375 C29.31234375 3.5234375 29.97234375 3.5234375 30.65234375 3.5234375 C32.99625438 7.19420028 32.97464368 10.77256297 32.98828125 14.9921875 C32.99493805 15.7095105 33.00159485 16.4268335 33.00845337 17.16589355 C33.01855427 18.67876631 33.02327118 20.1916834 33.02294922 21.70458984 C33.02732974 24.01604496 33.06369144 26.3256003 33.1015625 28.63671875 C33.10742987 30.10936849 33.1113998 31.58202727 33.11328125 33.0546875 C33.12765228 33.74332886 33.14202332 34.43197021 33.15682983 35.14147949 C33.12541329 38.447261 32.86112549 40.24124115 30.87353516 42.92773438 C25.34987153 46.89593238 18.34094404 45.70950965 11.80786133 45.70874023 C9.72521523 45.71092661 7.64309938 45.7291034 5.56054688 45.74804688 C3.58151367 45.75094727 3.58151367 45.75094727 1.5625 45.75390625 C0.35730713 45.75801514 -0.84788574 45.76212402 -2.08959961 45.76635742 C-5.37704558 45.52124624 -7.51214739 45.20176329 -10.34765625 43.5234375 C-12.70073141 39.59169442 -12.68351341 35.46250302 -12.71875 30.9921875 C-12.72777847 30.27865112 -12.73680695 29.56511475 -12.74610901 28.82995605 C-12.76056105 27.32727219 -12.76948565 25.82452613 -12.77319336 24.32177734 C-12.78512289 22.02984716 -12.83437623 19.74058418 -12.88476562 17.44921875 C-12.89422771 15.98438805 -12.90146378 14.51954094 -12.90625 13.0546875 C-12.92578232 12.37434448 -12.94531464 11.69400146 -12.96543884 10.99304199 C-12.931144 7.35818642 -12.38433928 5.57535982 -10.27197266 2.58544922 C-6.5804138 -0.01756515 -4.48953162 -0.06903086 0 0 Z " fill="#BDC8CC" transform="translate(50.34765625,282.4765625)"/>
<path d="M0 0 C5.03526954 -0.14864546 10.06925485 -0.25735139 15.10620117 -0.32958984 C16.81834159 -0.35970978 18.53032837 -0.40061592 20.24194336 -0.45263672 C22.70725411 -0.52567236 25.1705213 -0.55950102 27.63671875 -0.5859375 C28.39836838 -0.61690521 29.16001801 -0.64787292 29.94474792 -0.67977905 C34.10357269 -0.68239538 35.8034588 -0.16941212 38.9855957 2.57348633 C41.32265799 6.54884316 41.61919149 8.82635115 41.59375 13.41015625 C41.59379028 14.10008163 41.59383057 14.79000702 41.59387207 15.50083923 C41.58853998 16.950604 41.57105613 18.4003703 41.54199219 19.84985352 C41.50004153 22.06031146 41.50093678 24.26772549 41.5078125 26.47851562 C41.41725304 38.69013021 41.41725304 38.69013021 38 43 C34.59136783 45.52378568 31.13835433 45.25813942 27.00390625 45.265625 C25.9980674 45.26849518 25.9980674 45.26849518 24.97190857 45.27142334 C23.55735904 45.2727808 22.14279688 45.26911502 20.72827148 45.26074219 C18.57311737 45.25005266 16.41879992 45.26064304 14.26367188 45.2734375 C12.88541484 45.2721155 11.50715832 45.26955226 10.12890625 45.265625 C8.25827515 45.26224121 8.25827515 45.26224121 6.34985352 45.25878906 C3.05274761 45.00407496 0.87093553 44.62473018 -2 43 C-5.63089308 38.28121173 -4.37186677 31.10502274 -4.37060547 25.41088867 C-4.37496586 23.20477343 -4.41126913 21.00068177 -4.44921875 18.79492188 C-4.45509035 17.37761095 -4.45905745 15.96029059 -4.4609375 14.54296875 C-4.46915527 13.26446045 -4.47737305 11.98595215 -4.48583984 10.66870117 C-3.89010228 6.17013412 -2.45602358 3.773467 0 0 Z " fill="#BDC8CC" transform="translate(187,139)"/>
<path d="M0 0 C2.09151691 -0.0021822 4.18250244 -0.02033849 6.27392578 -0.03930664 C7.61116357 -0.04224177 8.94840385 -0.04422577 10.28564453 -0.04516602 C12.10298096 -0.05132935 12.10298096 -0.05132935 13.95703125 -0.05761719 C17.19482016 0.18262144 19.3935255 0.62142817 22.23095703 2.18530273 C22.72595703 3.67030273 22.72595703 3.67030273 23.23095703 5.18530273 C23.89095703 5.18530273 24.55095703 5.18530273 25.23095703 5.18530273 C25.25564151 9.9908002 25.27380958 14.79626092 25.28588867 19.60180664 C25.29092324 21.23722984 25.2977513 22.87264854 25.30639648 24.50805664 C25.31850038 26.85621249 25.32419403 29.20430893 25.32861328 31.55249023 C25.33377457 32.28587616 25.33893585 33.01926208 25.34425354 33.77487183 C25.34482874 38.95755932 25.34482874 38.95755932 24.23095703 41.18530273 C23.57095703 41.18530273 22.91095703 41.18530273 22.23095703 41.18530273 C21.90095703 42.17530273 21.57095703 43.16530273 21.23095703 44.18530273 C16.86949012 46.36603619 11.0113198 45.41241245 6.16503906 45.42553711 C4.00302083 45.43520408 1.84196927 45.46620767 -0.31982422 45.49780273 C-1.70393318 45.50433703 -3.08804892 45.50958583 -4.47216797 45.51342773 C-5.72674805 45.52277344 -6.98132813 45.53211914 -8.27392578 45.54174805 C-12.12346387 45.14915755 -14.49955453 44.22738717 -17.76904297 42.18530273 C-20.17395402 38.57793615 -20.0588716 35.94568999 -20.03466797 31.77905273 C-20.03658142 31.05794312 -20.03849487 30.3368335 -20.04046631 29.59387207 C-20.04182598 28.07079723 -20.03814474 26.54771071 -20.02978516 25.0246582 C-20.01908211 22.69382691 -20.02968735 20.36376632 -20.04248047 18.03295898 C-20.04115883 16.55248853 -20.03859636 15.07201856 -20.03466797 13.59155273 C-20.04074066 12.54614319 -20.04074066 12.54614319 -20.04693604 11.47961426 C-20.01151626 7.82334312 -19.85534678 6.31475846 -17.76904297 3.18530273 C-17.10904297 3.18530273 -16.44904297 3.18530273 -15.76904297 3.18530273 C-15.76904297 2.52530273 -15.76904297 1.86530273 -15.76904297 1.18530273 C-10.69880038 -0.50477813 -5.30618872 -0.00062119 0 0 Z " fill="#BDC8CC" transform="translate(129.76904296875,282.814697265625)"/>
<path d="M0 0 C2.07186088 -0.00970199 4.14272719 -0.04075048 6.21435547 -0.07226562 C7.53048828 -0.07742188 8.84662109 -0.08257812 10.20263672 -0.08789062 C11.40259277 -0.09723633 12.60254883 -0.10658203 13.83886719 -0.11621094 C17.61916049 0.28344353 19.99144531 1.24320015 23.21044922 3.24023438 C26.50345418 8.17974181 25.54322978 14.0791586 25.52612305 19.86376953 C25.52297008 22.10043373 25.54640177 24.33576561 25.57177734 26.57226562 C25.57405123 28.00064938 25.57475342 29.42903668 25.57373047 30.85742188 C25.57671143 32.15276855 25.57969238 33.44811523 25.58276367 34.78271484 C25.18314339 38.49381152 24.52586571 40.33999113 22.21044922 43.24023438 C18.78137253 45.80633243 14.90094889 45.57906533 10.77685547 45.61132812 C10.06190414 45.6203566 9.34695282 45.62938507 8.6103363 45.63868713 C7.10167613 45.65316114 5.59295358 45.66206929 4.08422852 45.66577148 C1.78342561 45.67768015 -0.51470318 45.72689453 -2.81494141 45.77734375 C-4.28432942 45.78680778 -5.75373383 45.79404292 -7.22314453 45.79882812 C-7.9066246 45.81836044 -8.59010468 45.83789276 -9.29429626 45.85801697 C-12.93052616 45.8238802 -14.73115605 45.2813365 -17.7253418 43.17382812 C-20.34497341 39.4508839 -20.40765494 37.27207722 -20.38330078 32.74414062 C-20.38334106 32.03297592 -20.38338135 31.32181122 -20.38342285 30.58909607 C-20.37808058 29.09047574 -20.36055263 27.59185491 -20.33154297 26.09350586 C-20.28973452 23.81275788 -20.29047407 21.5349725 -20.29736328 19.25390625 C-20.20485888 6.37240351 -20.20485888 6.37240351 -16.78955078 1.24023438 C-12.03927282 -1.07908851 -5.17896478 0.01468169 0 0 Z " fill="#BDC8CC" transform="translate(202.78955078125,282.759765625)"/>
<path d="M0 0 C1.07741959 0.0070546 1.07741959 0.0070546 2.17660522 0.01425171 C4.45987892 0.03551008 6.74079006 0.09206989 9.0234375 0.1484375 C10.56508221 0.16495512 12.10675183 0.17930048 13.6484375 0.19140625 C24.80437454 0.32541651 24.80437454 0.32541651 28.3984375 1.5234375 C28.3984375 2.1834375 28.3984375 2.8434375 28.3984375 3.5234375 C29.0584375 3.5234375 29.7184375 3.5234375 30.3984375 3.5234375 C33.62410442 8.67967814 32.77038342 14.86904888 32.76904297 20.74023438 C32.77340999 22.8849263 32.80973406 25.02754769 32.84765625 27.171875 C32.85352655 28.54686802 32.85749452 29.92187074 32.859375 31.296875 C32.86759277 32.53872559 32.87581055 33.78057617 32.88427734 35.06005859 C32.29953456 39.2284813 31.16157169 41.36447267 28.3984375 44.5234375 C22.88559133 46.58131103 16.22306807 45.7094298 10.36865234 45.70874023 C8.27290877 45.71093805 6.17768267 45.72915608 4.08203125 45.74804688 C2.74739763 45.75097919 1.41276151 45.75296507 0.078125 45.75390625 C-1.13117676 45.75801514 -2.34047852 45.76212402 -3.58642578 45.76635742 C-6.6015625 45.5234375 -6.6015625 45.5234375 -9.6015625 43.5234375 C-9.6015625 42.8634375 -9.6015625 42.2034375 -9.6015625 41.5234375 C-10.2615625 41.5234375 -10.9215625 41.5234375 -11.6015625 41.5234375 C-13.40420944 36.11549668 -12.90714117 30.14220955 -12.95166016 24.47265625 C-12.96822499 22.92660474 -12.99552271 21.38062999 -13.03369141 19.83496094 C-13.08859138 17.59790629 -13.11034867 15.36263838 -13.125 13.125 C-13.14766937 12.43838287 -13.17033875 11.75176575 -13.19369507 11.04434204 C-13.17772256 7.39803764 -12.64807506 5.58995023 -10.54394531 2.58105469 C-6.94513819 0.064398 -4.23602573 -0.13985676 0 0 Z " fill="#BDC7CC" transform="translate(50.6015625,138.4765625)"/>
<path d="M0 0 C1.06674706 -0.00505302 1.06674706 -0.00505302 2.15504456 -0.01020813 C3.65364844 -0.0099102 5.15231477 0.00525357 6.65063477 0.03442383 C8.93241398 0.07406254 11.20836096 0.05514055 13.49023438 0.02929688 C14.95184526 0.03685847 16.41344333 0.04781447 17.875 0.0625 C19.1942749 0.07450439 20.5135498 0.08650879 21.87280273 0.09887695 C26.55880208 0.95428529 28.16750803 2.43099092 31.50390625 5.76171875 C33.6381421 10.03019044 32.77198018 15.66314581 32.79907227 20.40039062 C32.81623007 22.49025923 32.86010844 24.57852209 32.90429688 26.66796875 C32.91442936 28.00649882 32.92294373 29.34504231 32.9296875 30.68359375 C32.94427002 31.8962793 32.95885254 33.10896484 32.97387695 34.35839844 C32.4055459 38.47400098 31.14095061 40.5800076 28.50390625 43.76171875 C23.76400357 47.29637749 16.90344948 46.17240791 11.23217773 46.18725586 C9.07615899 46.19916488 6.92299433 46.24838169 4.76757812 46.29882812 C3.38933681 46.30829235 2.01107801 46.31552739 0.6328125 46.3203125 C-0.6142749 46.33376709 -1.8613623 46.34722168 -3.14624023 46.36108398 C-7.37819411 45.60389087 -8.81569913 44.04119131 -11.49609375 40.76171875 C-13.73370568 36.28649489 -12.80598954 30.24272089 -12.84619141 25.26855469 C-12.8627157 23.77100038 -12.88995981 22.2735238 -12.92822266 20.77636719 C-12.98327717 18.60961289 -13.00490765 16.44470531 -13.01953125 14.27734375 C-13.03935059 12.98086914 -13.05916992 11.68439453 -13.07958984 10.34863281 C-11.79025192 2.42271112 -7.64084866 0.00233508 0 0 Z " fill="#00BE62" transform="translate(195.49609375,210.23828125)"/>
<path d="M0 0 C3.06765423 1.72196807 5.40321354 3.80642707 7 7 C7.10469745 8.47936909 7.14866863 9.96327217 7.16113281 11.44628906 C7.17074036 12.36774719 7.1803479 13.28920532 7.19024658 14.23858643 C7.19449646 15.23750916 7.19874634 16.23643188 7.203125 17.265625 C7.20882507 18.29177917 7.21452515 19.31793335 7.22039795 20.37518311 C7.22985703 22.55073004 7.23638552 24.72629137 7.24023438 26.90185547 C7.24992004 30.22258737 7.28092705 33.54269523 7.3125 36.86328125 C7.31903199 38.97655882 7.32428169 41.08984083 7.328125 43.203125 C7.3404718 44.19395081 7.3528186 45.18477661 7.36553955 46.20562744 C7.34532904 52.49597929 6.64003876 56.95380143 2.375 61.875 C-1.39408579 63.66035643 -4.91924365 63.76381575 -9 63 C-12.86170132 60.9426031 -15.3508211 58.03315914 -17 54 C-17.24291992 51.9831543 -17.24291992 51.9831543 -17.23046875 49.82421875 C-17.22934082 49.00711426 -17.22821289 48.19000977 -17.22705078 47.34814453 C-17.21399902 46.47013184 -17.20094727 45.59211914 -17.1875 44.6875 C-17.17960449 43.77339355 -17.17170898 42.85928711 -17.16357422 41.91748047 C-17.07818001 34.81773416 -16.88460827 27.72038623 -16.625 20.625 C-16.5943042 19.66940186 -16.5636084 18.71380371 -16.53198242 17.72924805 C-15.98071664 4.86067321 -15.98071664 4.86067321 -11.9375 1.0625 C-7.85808072 -0.41303463 -4.28090917 -0.82759228 0 0 Z " fill="#303942" transform="translate(207,6)"/>
<path d="M0 0 C3.5 1.625 3.5 1.625 6 4 C7.38192707 9.37357634 7.1958201 14.95707793 7.23828125 20.47265625 C7.246353 21.47332626 7.25442474 22.47399628 7.26274109 23.50498962 C7.27652782 25.61374199 7.28727399 27.72251616 7.29516602 29.83129883 C7.30673197 31.98728982 7.32725567 34.14325117 7.35668945 36.29907227 C7.39926739 39.41963083 7.41551671 42.5393437 7.42578125 45.66015625 C7.44328934 46.62172134 7.46079742 47.58328644 7.47883606 48.57398987 C7.46474539 52.9145694 7.42844337 55.31524351 5.08276367 59.06420898 C1.20723932 62.66625243 -1.61982152 63.45531624 -7.03515625 63.32421875 C-10.16557549 62.80766846 -11.83548354 61.22817871 -14 59 C-16.1377501 55.79337485 -16.26667841 54.86565566 -16.33813477 51.16479492 C-16.36057755 50.18335007 -16.38302032 49.20190521 -16.40614319 48.1907196 C-16.41778 47.13133682 -16.42941681 46.07195404 -16.44140625 44.98046875 C-16.45517807 43.88914139 -16.46894989 42.79781403 -16.48313904 41.67341614 C-16.50642486 39.36265135 -16.52368321 37.0518192 -16.53540039 34.7409668 C-16.56232211 31.21082627 -16.63722044 27.68368236 -16.71289062 24.15429688 C-16.72954817 21.90887433 -16.74331451 19.6634281 -16.75390625 17.41796875 C-16.79868858 15.83800362 -16.79868858 15.83800362 -16.84437561 14.22612 C-16.80185505 7.11694975 -16.80185505 7.11694975 -14.55099487 3.9815979 C-10.04898718 -0.1310396 -6.01474929 -1.26626301 0 0 Z " fill="#2F373F" transform="translate(74,6)"/>
<path d="M0 0 C2.9375 1.375 2.9375 1.375 5 4 C6.9608906 10.54363383 7.3181973 17.20193241 7.3359375 23.98828125 C7.3425943 24.89450729 7.3492511 25.80073334 7.35610962 26.73442078 C7.36615115 28.63095084 7.37092931 30.52751564 7.37060547 32.42407227 C7.37501599 35.32301002 7.41152596 38.2204675 7.44921875 41.11914062 C7.45508134 42.97134901 7.45905446 44.82356455 7.4609375 46.67578125 C7.47530853 47.53730301 7.48967957 48.39882477 7.50448608 49.28645325 C7.47324271 53.39020075 7.34293578 55.46278057 5.08447266 59.00073242 C1.84165486 62.11099653 0.08137828 62.90169288 -4.4375 63.3125 C-9.05344895 62.9075922 -11.5327213 61.63515591 -14.61437988 58.20091248 C-16.25751185 55.59096938 -16.3900756 54.09930297 -16.41992188 51.03540039 C-16.43583374 50.05080338 -16.45174561 49.06620636 -16.46813965 48.05177307 C-16.46834106 46.99441452 -16.46854248 45.93705597 -16.46875 44.84765625 C-16.47636353 43.75537216 -16.48397705 42.66308807 -16.49182129 41.53770447 C-16.50262229 39.22869146 -16.50547541 36.91962959 -16.50097656 34.6105957 C-16.50000448 31.07876068 -16.54162423 27.54909934 -16.5859375 24.01757812 C-16.59114466 21.77344203 -16.59383269 19.52929838 -16.59375 17.28515625 C-16.61014526 16.22982193 -16.62654053 15.17448761 -16.64343262 14.08717346 C-16.57429401 6.7482679 -16.57429401 6.7482679 -13.58789062 2.85717773 C-9.04859229 -0.40041117 -5.49605177 -0.63708559 0 0 Z " fill="#2A333C" transform="translate(273,6)"/>
<path d="M0 0 C2.71043054 1.24017629 4.88068625 2.88068625 7 5 C7.10056128 7.01881517 7.13081853 9.04118278 7.1328125 11.0625 C7.13482666 12.32698975 7.13684082 13.59147949 7.13891602 14.89428711 C7.13482913 16.26285983 7.13018023 17.63143098 7.125 19 C7.12378143 19.6827298 7.12256287 20.36545959 7.12130737 21.06887817 C7.06441967 48.05314307 7.06441967 48.05314307 5 59 C2.9375 60.4375 2.9375 60.4375 1 61 C1 61.66 1 62.32 1 63 C-7.89464594 63.62176166 -7.89464594 63.62176166 -12 61.3125 C-16.68701705 55.89313654 -16.32051579 50.24232558 -16.3359375 43.40625 C-16.3425943 42.38196899 -16.3492511 41.35768799 -16.35610962 40.30236816 C-16.36621748 38.14056185 -16.37092722 35.97872445 -16.37060547 33.81689453 C-16.37498473 30.51152272 -16.41134176 27.20748003 -16.44921875 23.90234375 C-16.45508606 21.79948372 -16.45905603 19.69661737 -16.4609375 17.59375 C-16.47530853 16.60717407 -16.48967957 15.62059814 -16.50448608 14.60412598 C-16.47568538 10.27713796 -16.43817766 7.72274332 -14.15869141 3.96289062 C-9.51133286 -0.26293641 -6.08235226 -0.88074948 0 0 Z " fill="#303841" transform="translate(140,6)"/>
<path d="M0 0 C2 2 2 2 2.22705078 4.43017578 C2.21657715 5.4251709 2.20610352 6.42016602 2.1953125 7.4453125 C2.19031738 8.41484863 2.18532227 9.38438477 2.18017578 10.38330078 C2.15286377 12.23544189 2.15286377 12.23544189 2.125 14.125 C2.08375 18.04375 2.0425 21.9625 2 26 C15.86 26 29.72 26 44 26 C44.3125 36.625 44.3125 36.625 44.38793945 39.93994141 C44.58946013 45.28538764 44.89615351 49.44375979 48 54 C51.16240582 56.10827055 52.50657469 56.33817465 56.1875 56.625 C57.08855469 56.69976562 57.98960937 56.77453125 58.91796875 56.8515625 C59.60503906 56.90054688 60.29210937 56.94953125 61 57 C61 56.34 61 55.68 61 55 C62.485 54.505 62.485 54.505 64 54 C64 54.99 64 55.98 64 57 C61.29761702 58.35119149 59.13985554 58.13237128 56.125 58.125 C55.07570312 58.12757812 54.02640625 58.13015625 52.9453125 58.1328125 C50.44323315 58.01998664 48.38243077 57.72508762 46 57 C46 56.01 46 55.02 46 54 C44.68 53.34 43.36 52.68 42 52 C42 44.41 42 36.82 42 29 C23.19 29.495 23.19 29.495 4 30 C3.21607673 33.13569307 2.89640996 34.92631896 3.0078125 38.00390625 C3.02457031 38.74447266 3.04132813 39.48503906 3.05859375 40.24804688 C3.10298354 41.79516177 3.15510947 43.34207343 3.21484375 44.88867188 C3.32371356 50.56474783 3.32371356 50.56474783 1.4921875 53.02734375 C0.99976562 53.34832031 0.50734375 53.66929688 0 54 C-0.66 53.67 -1.32 53.34 -2 53 C-1.34 52.01 -0.68 51.02 0 50 C0.28955529 47.67691185 0.28955529 47.67691185 0.22705078 45.06958008 C0.22682419 43.56836357 0.22682419 43.56836357 0.22659302 42.03681946 C0.21627045 40.95861435 0.20594788 39.88040924 0.1953125 38.76953125 C0.19106766 37.11119514 0.19106766 37.11119514 0.18673706 35.4193573 C0.17553002 31.88362872 0.15042427 28.3481522 0.125 24.8125 C0.11497089 22.41732136 0.10584492 20.02213876 0.09765625 17.62695312 C0.07558897 11.75121589 0.04210618 5.87562595 0 0 Z " fill="#79BEEA" transform="translate(80,12)"/>
<path d="M0 0 C0.89911555 3.02429774 1.06202282 5.54056224 0.87890625 8.68359375 C0.80615479 10.06067505 0.80615479 10.06067505 0.73193359 11.46557617 C0.67602051 12.44631104 0.62010742 13.4270459 0.5625 14.4375 C0.15653792 22.52387798 -0.11426973 30.59043917 -0.125 38.6875 C-0.12943115 39.565271 -0.1338623 40.44304199 -0.13842773 41.34741211 C-0.13564819 42.5734314 -0.13564819 42.5734314 -0.1328125 43.82421875 C-0.13112061 44.89289185 -0.13112061 44.89289185 -0.12939453 45.9831543 C0.00592751 48.09239082 0.42595517 49.96975109 1 52 C0.34 52 -0.32 52 -1 52 C-2.2263757 49.54724859 -2.11415314 47.9494219 -2.09765625 45.2109375 C-2.09515869 44.36321777 -2.09266113 43.51549805 -2.09008789 42.64208984 C-2.08098389 41.5639502 -2.07187988 40.48581055 -2.0625 39.375 C-2.041875 35.95125 -2.02125 32.5275 -2 29 C-14.87 29 -27.74 29 -41 29 C-40.92120289 35.3569873 -40.92120289 35.3569873 -40.81982422 41.71362305 C-40.7915508 46.23964939 -40.80891459 49.90249775 -43 54 C-44.32 53.67 -45.64 53.34 -47 53 C-46.8460376 52.05761475 -46.6920752 51.11522949 -46.53344727 50.14428711 C-45.85002703 45.34229543 -45.66654919 40.53362668 -45.46484375 35.69140625 C-45.42186661 34.72468491 -45.37888947 33.75796356 -45.33460999 32.76194763 C-45.19902539 29.69559617 -45.06819178 26.6290635 -44.9375 23.5625 C-44.84601756 21.47459557 -44.75422399 19.38670476 -44.66210938 17.29882812 C-44.43780482 12.1993692 -44.21775891 7.09974246 -44 2 C-43.67 2 -43.34 2 -43 2 C-43 9.92 -43 17.84 -43 26 C-29.47 25.67 -15.94 25.34 -2 25 C-1.71093216 17.52093961 -1.71093216 17.52093961 -1.43188477 10.04150391 C-1.39377686 9.11257324 -1.35566895 8.18364258 -1.31640625 7.2265625 C-1.27974854 6.27346191 -1.24309082 5.32036133 -1.20532227 4.33837891 C-1 2 -1 2 0 0 Z " fill="#83BBDE" transform="translate(191,12)"/>
<path d="M0 0 C0.33 0 0.66 0 1 0 C1 15.51 1 31.02 1 47 C0.67 47 0.34 47 0 47 C-0.33 40.4 -0.66 33.8 -1 27 C-3.71992188 27.01160156 -6.43984375 27.02320312 -9.2421875 27.03515625 C-11.86995324 27.04294998 -14.4977177 27.04902495 -17.12548828 27.05493164 C-18.95492121 27.05996737 -20.78435009 27.06679627 -22.61376953 27.07543945 C-25.23991898 27.08753824 -27.86601532 27.09323583 -30.4921875 27.09765625 C-31.31306854 27.10281754 -32.13394958 27.10797882 -32.97970581 27.11329651 C-38.77225659 27.11387171 -38.77225659 27.11387171 -41 26 C-41 33.59 -41 41.18 -41 49 C-41.99 49 -42.98 49 -44 49 C-43.67 48.01 -43.34 47.02 -43 46 C-42.85222064 44.30132812 -42.75252934 42.59822511 -42.68359375 40.89453125 C-42.64548584 40.00870361 -42.60737793 39.12287598 -42.56811523 38.21020508 C-42.52501221 37.0889624 -42.48190918 35.96771973 -42.4375 34.8125 C-42.293125 31.244375 -42.14875 27.67625 -42 24 C-28.14 24 -14.28 24 0 24 C0 16.08 0 8.16 0 0 Z " fill="#78BAE5" transform="translate(256,14)"/>
<path d="M0 0 C8.72542301 -0.12852505 17.31008699 0.20354316 26 1 C26 1.33 26 1.66 26 2 C20.06 2.33 14.12 2.66 8 3 C7.67 3.66 7.34 4.32 7 5 C5.35 5 3.7 5 2 5 C2.03480469 6.24136719 2.06960938 7.48273437 2.10546875 8.76171875 C2.13361584 10.40363226 2.16091501 12.04556046 2.1875 13.6875 C2.21263672 14.50412109 2.23777344 15.32074219 2.26367188 16.16210938 C2.321352 20.91110596 2.19897455 24.19744534 -1 28 C-3.6875 28.8125 -3.6875 28.8125 -6 29 C-4.78763672 27.88238281 -4.78763672 27.88238281 -3.55078125 26.7421875 C0.27850924 22.14703891 -0.21923414 16.85124867 -0.1875 11.125 C-0.16236328 10.05507813 -0.13722656 8.98515625 -0.11132812 7.8828125 C-0.05266799 5.25483835 -0.0162333 2.62852175 0 0 Z " fill="#3B99D5" transform="translate(280,39)"/>
<path d="M0 0 C0.33 1.32 0.66 2.64 1 4 C0.01 4.495 0.01 4.495 -1 5 C-0.67 14.9 -0.34 24.8 0 35 C0.66 35 1.32 35 2 35 C2.103125 35.639375 2.20625 36.27875 2.3125 36.9375 C2.6528125 37.9584375 2.6528125 37.9584375 3 39 C6.5062443 40.1687481 9.6477866 40.12514267 13.29296875 40.09765625 C13.99899734 40.0962413 14.70502594 40.09482635 15.43244934 40.09336853 C17.68417626 40.08777764 19.93580321 40.07522688 22.1875 40.0625 C23.71549335 40.05748382 25.24348827 40.05292112 26.77148438 40.04882812 C30.51436135 40.0378112 34.25716373 40.02055287 38 40 C33.14604401 43.23597066 27.48512272 42.41074846 21.80371094 42.42553711 C19.6388192 42.43742412 17.47678929 42.48659944 15.3125 42.53710938 C13.92970136 42.54657566 12.54688527 42.55380972 11.1640625 42.55859375 C9.91061035 42.57204834 8.6571582 42.58550293 7.36572266 42.59936523 C3.1218198 41.84361436 1.68593901 40.28967062 -1 37 C-3.24578046 32.50843908 -2.18584432 26.34142092 -2.18530273 21.34204102 C-2.1874881 19.07484134 -2.20564493 16.80812911 -2.22460938 14.54101562 C-2.22754362 13.10156417 -2.22952821 11.66211039 -2.23046875 10.22265625 C-2.23457764 8.91047119 -2.23868652 7.59828613 -2.24291992 6.24633789 C-2 3 -2 3 0 0 Z " fill="#28B371" transform="translate(185,214)"/>
<path d="M0 0 C1.32 0.33 2.64 0.66 4 1 C3.67 9.58 3.34 18.16 3 27 C2.01 27 1.02 27 0 27 C0 18.09 0 9.18 0 0 Z " fill="#2C3236" transform="translate(209,36)"/>
<path d="M0 0 C2.49518039 -0.32980176 4.73807132 -0.46802628 7.23828125 -0.46875 C7.95606247 -0.47636353 8.67384369 -0.48397705 9.41337585 -0.49182129 C10.93399578 -0.50263473 12.45469006 -0.50547031 13.9753418 -0.50097656 C16.29408259 -0.5000077 18.60947495 -0.54153113 20.92773438 -0.5859375 C22.40624311 -0.59114736 23.88476333 -0.59383265 25.36328125 -0.59375 C26.05303543 -0.61014526 26.74278961 -0.62654053 27.45344543 -0.64343262 C31.43705035 -0.58673916 32.89545037 -0.08909223 35.97729492 2.53710938 C36.6447876 3.34986328 37.31228027 4.16261719 38 5 C37.01 5 36.02 5 35 5 C34.505 4.01 34.505 4.01 34 3 C22.12 3 10.24 3 -2 3 C-1.34 2.01 -0.68 1.02 0 0 Z " fill="#2AB374" transform="translate(188,211)"/>
<path d="M0 0 C3.36383457 3.36383457 2.33763411 8.00522345 2.37109375 12.546875 C2.37093262 13.23716797 2.37077148 13.92746094 2.37060547 14.63867188 C2.37495568 16.72870781 2.41119802 18.81659123 2.44921875 20.90625 C2.4550918 22.24478448 2.45905793 23.58332895 2.4609375 24.921875 C2.46915527 26.13456055 2.47737305 27.34724609 2.48583984 28.59667969 C1.91177746 32.6180011 0.45593348 34.81343088 -2 38 C-2.33 36.68 -2.66 35.36 -3 34 C-1.515 33.505 -1.515 33.505 0 33 C0 22.11 0 11.22 0 0 Z " fill="#38B77D" transform="translate(226,216)"/>
<path d="M0 0 C0.33 0 0.66 0 1 0 C1.05070815 6.33541445 1.08573696 12.67077657 1.10986328 19.00634766 C1.1199211 21.16164099 1.13356899 23.31692068 1.15087891 25.47216797 C1.17513662 28.57002124 1.18648532 31.66769409 1.1953125 34.765625 C1.20563507 35.72929993 1.21595764 36.69297485 1.22659302 37.68585205 C1.22674408 38.58648376 1.22689514 39.48711548 1.22705078 40.41503906 C1.231492 41.20557678 1.23593323 41.9961145 1.24050903 42.81060791 C0.97196847 45.25517547 0.21882157 46.88156035 -1 49 C-1.33 49 -1.66 49 -2 49 C-1.34 32.83 -0.68 16.66 0 0 Z " fill="#597589" transform="translate(147,14)"/>
<path d="M0 0 C0.33 0 0.66 0 1 0 C1 7.92 1 15.84 1 24 C-0.72347656 24.04898438 -2.44695313 24.09796875 -4.22265625 24.1484375 C-6.50261937 24.22349801 -8.78256653 24.29904442 -11.0625 24.375 C-12.19623047 24.4059375 -13.32996094 24.436875 -14.49804688 24.46875 C-20.35089999 24.67351454 -25.46308934 25.07411803 -31 27 C-32.66246041 27.35371498 -34.32774271 27.69595322 -36 28 C-33.77532661 24.94107409 -31.10450101 24.24032144 -27.52734375 23.39697266 C-22.38372418 22.58905869 -17.19223658 22.79768147 -12 22.875 C-10.26556641 22.88853516 -10.26556641 22.88853516 -8.49609375 22.90234375 C-5.66397214 22.92574971 -2.8319582 22.96161502 0 23 C0 15.41 0 7.82 0 0 Z " fill="#E2EDF3" transform="translate(57,15)"/>
<path d="M0 0 C20.72340426 -1.14893617 20.72340426 -1.14893617 29 6 C28.67 6.66 28.34 7.32 28 8 C26.989375 7.525625 25.97875 7.05125 24.9375 6.5625 C21.34077795 5.0063672 17.90731291 4.3987054 14 4 C13.67 3.01 13.34 2.02 13 1 C8.71 1 4.42 1 0 1 C0 0.67 0 0.34 0 0 Z " fill="#68B8E7" transform="translate(293,39)"/>
<path d="M0 0 C0.66 0.33 1.32 0.66 2 1 C0.16282652 5.22549899 -0.86735851 7.07143397 -5 9 C-5.80528889 11.05000871 -5.80528889 11.05000871 -6 13 C-6.66 13 -7.32 13 -8 13 C-8 14.65 -8 16.3 -8 18 C-8.33 18 -8.66 18 -9 18 C-9.49940808 11.88225104 -8.24900602 8.97504047 -5 4 C-4.34 4 -3.68 4 -3 4 C-3 3.34 -3 2.68 -3 2 C-2.01 1.34 -1.02 0.68 0 0 Z " fill="#82C4EC" transform="translate(19,43)"/>
<path d="M0 0 C0.33 0 0.66 0 1 0 C1.08636719 0.73605469 1.17273438 1.47210938 1.26171875 2.23046875 C1.91508141 6.76804249 2.50573005 10.2277032 5 14.125 C9.20171218 16.75107011 13.12143707 16.89579768 18 17 C18 16.34 18 15.68 18 15 C18.99 14.67 19.98 14.34 21 14 C21 14.99 21 15.98 21 17 C18.29761702 18.35119149 16.13985554 18.13237128 13.125 18.125 C12.07570312 18.12757812 11.02640625 18.13015625 9.9453125 18.1328125 C7.44323315 18.01998664 5.38243077 17.72508762 3 17 C3 16.01 3 15.02 3 14 C2.01 13.67 1.02 13.34 0 13 C0 8.71 0 4.42 0 0 Z " fill="#3F99D0" transform="translate(123,52)"/>
<path d="M0 0 C1.7734375 1.5234375 1.7734375 1.5234375 3 3 C1.1746875 2.9690625 1.1746875 2.9690625 -0.6875 2.9375 C-3.91492629 2.94322239 -6.88606572 3.05638355 -10 4 C-10.33 4.66 -10.66 5.32 -11 6 C-12.64363134 6.72159424 -14.31050386 7.39351421 -16 8 C-15.10368306 4.98511576 -14.32087126 3.28197778 -11.9375 1.1875 C-8.0058834 -0.40187692 -4.18827361 -0.80000732 0 0 Z " fill="#96979A" transform="translate(273,6)"/>
<path d="M0 0 C0.66 0 1.32 0 2 0 C2.42925781 0.64453125 2.85851563 1.2890625 3.30078125 1.953125 C4.8413383 4.22176756 4.8413383 4.22176756 7.48046875 4.609375 C8.82044922 4.67898437 8.82044922 4.67898437 10.1875 4.75 C11.08855469 4.80671875 11.98960938 4.8634375 12.91796875 4.921875 C13.60503906 4.94765625 14.29210937 4.9734375 15 5 C15 4.01 15 3.02 15 2 C16.32 2 17.64 2 19 2 C19 1.34 19 0.68 19 0 C19.66 0.33 20.32 0.66 21 1 C15.25399726 6.89721334 15.25399726 6.89721334 10.1875 7.3125 C6.90901165 7.27673467 5.99338116 6.99591603 3.0625 5.1875 C1 3 1 3 0 0 Z " fill="#1C3F5B" transform="translate(59,62)"/>
<path d="M0 0 C1.65 0 3.3 0 5 0 C3.68 0.33 2.36 0.66 1 1 C1.01047363 1.57967529 1.02094727 2.15935059 1.03173828 2.7565918 C1.07348615 5.40018321 1.09938538 8.04370505 1.125 10.6875 C1.14175781 11.59951172 1.15851563 12.51152344 1.17578125 13.45117188 C1.20936169 18.06848227 1.23556185 21.81932331 -1 26 C-2.32 25.67 -3.64 25.34 -5 25 C-4.35546875 24.03964844 -3.7109375 23.07929687 -3.046875 22.08984375 C-0.51144541 17.65284197 -0.33906404 13.58652181 -0.25 8.5625 C-0.22035156 7.73556641 -0.19070312 6.90863281 -0.16015625 6.05664062 C-0.0901549 4.03826823 -0.04273299 2.01913377 0 0 Z " fill="#35A3EA" transform="translate(149,40)"/>
<path d="M0 0 C1.32 0 2.64 0 4 0 C2.63016497 3.16115776 2.0109362 3.9927092 -1 6 C-3.15625 6.30078125 -3.15625 6.30078125 -5.5 6.3125 C-6.66015625 6.33763672 -6.66015625 6.33763672 -7.84375 6.36328125 C-10.47015897 5.92078843 -11.33557103 5.02185443 -13 3 C-11.906875 3.226875 -10.81375 3.45375 -9.6875 3.6875 C-6.09468727 4.40146383 -6.09468727 4.40146383 -4.0625 2.5625 C-3.711875 2.046875 -3.36125 1.53125 -3 1 C-2.01 1.33 -1.02 1.66 0 2 C0 1.34 0 0.68 0 0 Z " fill="#1E3F5A" transform="translate(208,63)"/>
<path d="M0 0 C0.804375 0.66 1.60875 1.32 2.4375 2 C6.39028613 4.64770947 10.38137484 4.72218502 15 4 C17.21321638 3.04542479 17.21321638 3.04542479 19 2 C19 2.66 19 3.32 19 4 C15.01724126 7.13793113 11.97881703 7.43673834 7 7 C3.5625 6 3.5625 6 1 5 C0.67 3.35 0.34 1.7 0 0 Z " fill="#3C98D3" transform="translate(192,64)"/>
<path d="M0 0 C0.33 0 0.66 0 1 0 C1.2545727 3.93629132 1.47429232 7.87376868 1.6875 11.8125 C1.76033203 12.93205078 1.83316406 14.05160156 1.90820312 15.20507812 C1.96298828 16.27822266 2.01777344 17.35136719 2.07421875 18.45703125 C2.13182373 19.44678955 2.18942871 20.43654785 2.2487793 21.45629883 C2 24 2 24 0.49536133 25.84643555 C0.00189209 26.22711182 -0.49157715 26.60778809 -1 27 C-1.66 26.67 -2.32 26.34 -3 26 C-2.01 24.515 -2.01 24.515 -1 23 C-0.63303819 20.48497823 -0.63303819 20.48497823 -0.5859375 17.67578125 C-0.54726562 16.64775391 -0.50859375 15.61972656 -0.46875 14.56054688 C-0.4378125 13.48869141 -0.406875 12.41683594 -0.375 11.3125 C-0.33632812 10.22904297 -0.29765625 9.14558594 -0.2578125 8.02929688 C-0.16349491 5.35303533 -0.07789995 2.67678157 0 0 Z " fill="#388FCA" transform="translate(81,39)"/>
<path d="M0 0 C0.33 0 0.66 0 1 0 C1 2.97 1 5.94 1 9 C1.66 9 2.32 9 3 9 C3.103125 9.639375 3.20625 10.27875 3.3125 10.9375 C3.539375 11.618125 3.76625 12.29875 4 13 C4.99 13.33 5.98 13.66 7 14 C7 14.66 7 15.32 7 16 C3.34683329 14.75023244 2.21934164 14.32901247 0 11 C-0.1953125 8.30078125 -0.1953125 8.30078125 -0.125 5.3125 C-0.10695312 4.31863281 -0.08890625 3.32476562 -0.0703125 2.30078125 C-0.04710937 1.54152344 -0.02390625 0.78226563 0 0 Z " fill="#22BA74" transform="translate(184,240)"/>
<path d="M0 0 C0.98120464 3.05263664 0.98120464 4.94736336 0 8 C-1.32 7.67 -2.64 7.34 -4 7 C-2.68 4.69 -1.36 2.38 0 0 Z " fill="#3891C8" transform="translate(148,58)"/>
<path d="M0 0 C0 0.33 0 0.66 0 1 C-3.98060777 2.17076699 -7.91621717 3.25749403 -12 4 C-8.07829422 -0.09996514 -5.68430095 -0.10526483 0 0 Z " fill="#B1DAF2" transform="translate(33,39)"/>
<path d="M0 0 C0 0.99 0 1.98 0 3 C-1 4 -1 4 -3.06640625 4.09765625 C-3.89011719 4.08605469 -4.71382813 4.07445313 -5.5625 4.0625 C-6.38878906 4.05347656 -7.21507813 4.04445313 -8.06640625 4.03515625 C-8.70449219 4.02355469 -9.34257813 4.01195313 -10 4 C-10 3.67 -10 3.34 -10 3 C-6.97265625 2.26757812 -6.97265625 2.26757812 -3.9453125 1.53515625 C-1.9414343 1.05153008 -1.9414343 1.05153008 0 0 Z " fill="#3B91C4" transform="translate(77,66)"/>
<path d="M0 0 C1.68762851 1.6454378 3.3540349 3.31288577 5 5 C5 5.33 5 5.66 5 6 C3.35 6 1.7 6 0 6 C0 4.02 0 2.04 0 0 Z " fill="#3D98D4" transform="translate(58,62)"/>
<path d="M0 0 C2.9719385 1.12451727 5.33440687 2.22293791 8 4 C7.67 4.66 7.34 5.32 7 6 C4.0625 4.6875 4.0625 4.6875 1 3 C0.67 2.01 0.34 1.02 0 0 Z " fill="#AAD6EE" transform="translate(314,41)"/>
<path d="M0 0 C2.31 0 4.62 0 7 0 C4.82575883 2.50037734 3.26954202 3.43628586 0 4 C0 2.68 0 1.36 0 0 Z " fill="#2B2F35" transform="translate(132,8)"/>
</svg>
